<svg id="screenshot" viewBox="461.5387648486708 89.49965426205385 419.65941597181404 492.4263160047063" width="419.65941597181404" height="492.4263160047063" version="1.1" xmlns="http://www.w3.org/2000/svg" xmlns:xlink="http://www.w3.org/1999/xlink" style="-webkit-print-color-adjust: exact;"><g id="shape-561912b0-a6e8-11ec-b67d-8f0c9f96ec17"><g id="shape-561912b1-a6e8-11ec-b67d-8f0c9f96ec17"><path d="M670.4371818450794,91.86840054701293C669.283939445262,92.58831199352369,662.8327080444454,97.4821761135417,655.222033915296,103.42495252039566C614.0020255054563,135.61120385986158,577.5701296095398,154.82128049821944,538.3229291948194,165.0618291103005C520.804326490196,169.63286466272302,498.4144071648742,172.10196079298703,474.34993154425104,172.1196359376205L462.74587177471017,172.1289878659984L463.39788822119954,198.54818553282593C466.12107624548344,308.8081692594501,485.6184441236029,394.7070341973139,522.4903856574002,458.88249174532837C553.8782067596973,513.5128007234949,599.14664626036,553.2088562926289,654.2868410775317,574.453669395823C658.9160175686781,576.2372598240778,664.3869330773097,578.3566592965165,666.4443479684618,579.1625149648178C668.501753507686,579.9683332254054,670.2342075915705,580.6688955321026,670.2928815902129,580.7187319584267C670.2956871687257,580.72153753694,670.4179823361209,580.678518666403,670.4371818450794,580.6748714143359Z" style="fill: rgb(153, 153, 153); fill-opacity: 1; stroke-width: 1;"/></g><g id="shape-561912b2-a6e8-11ec-b67d-8f0c9f96ec17"><path d="M670.4371818450794,120.85937851769125C617.42662686192,161.84607501836575,553.6347386563141,194.1700802628344,485.2799978356162,194.3870450011957C488.9215452265846,288.3165978755042,500.42647455532176,387.6397819223324,554.4312611000945,466.9629319407427C582.5499660071326,507.3529660589958,622.5381945226414,541.7064800403375,670.4371818450794,555.3915776721127Z" style="fill: rgb(236, 236, 236); fill-opacity: 1; stroke-width: 1;"/></g><g id="shape-561912b3-a6e8-11ec-b67d-8f0c9f96ec17"><path d="M673.173374589676,89.8190346180279C673.077940736683,89.82256920517591,671.946024548443,90.64414864183112,670.4371799867523,91.76609729431397L670.4371799867523,577.863623357356C671.4126906936982,578.2546193876558,672.7485172145003,578.7830048203938,672.7843225823079,578.8134376157373C672.9299475728011,578.937148165913,691.407850189309,571.9463003213314,696.058200462173,570.0076146165856C753.234000279277,546.1721968765355,799.8073464499586,501.2677767194739,830.1232176504346,440.74825746046577C858.8970545159015,383.30683341919735,875.1954246594065,310.64095284756763,879.7852274544272,219.32312658826737C880.5268545297969,204.56569505775627,881.0892780367702,178.13946028417496,880.8026230190757,171.5442034331844C880.7743463218918,170.8602961659397,874.0573582895298,170.31939829469803,860.4183408243535,169.90221097363258C830.4728943569752,168.98625806012825,814.4054387918417,166.4362655081555,791.3894090444159,158.94838401883675C756.4955052241211,147.59617374660297,726.061437429419,130.52917228191785,688.1364484004513,101.04675673091378C680.1788909709218,94.8607343799062,673.4455024541925,89.8083601648413,673.173374589676,89.8190346180279ZZ" style="fill: rgb(19, 128, 182); fill-opacity: 1; stroke-width: 0.264583;"/></g><g id="shape-561912b4-a6e8-11ec-b67d-8f0c9f96ec17"><path d="M673.1093985622998,118.81728242151416C672.224161211111,119.50242679426145,671.3284261360926,120.17922954133923,670.4371799867523,120.85939014620743L670.4371799867523,552.7504170174725C671.4913352577386,553.0692367782121,672.5443594608377,553.3906721334411,673.6062554776785,553.6892387098234C705.7962708215802,545.6354698181285,733.0460997464912,524.7076034659319,757.3334144534,502.81804664253843C811.954202604781,450.5580092472326,838.3265702702289,375.9972011597473,848.9037869644166,302.4255826314712C854.6940062466032,266.22370483709943,857.1387034474409,229.63606220140753,857.9926243565002,193.05001012993245C789.9434094422139,191.2204724763132,725.2830506477109,160.21518005264056,673.1093985622998,118.81728242151416ZZ" style="fill: rgb(28, 153, 216); fill-opacity: 1; stroke-width: 0.264583;"/></g><g id="shape-561912b5-a6e8-11ec-b67d-8f0c9f96ec17"><path d="M639.0027179915822,216.7285899822885C629.1827159020876,216.72890809513183,623.0879919371095,216.7604012666194,623.0880626288521,216.83073955086212C623.0881686664667,216.9682349909155,625.8268728262661,221.1495102033826,629.1741268553175,226.1205535681744C645.765655656869,250.76104422289967,655.4120034797883,276.5923726336199,659.9751554877138,308.60018001004846L660.5615434955483,312.71175316395954L654.8827697461348,312.11811925247105C628.8064944460656,309.3925991027337,598.5518776408622,298.1032337899888,574.6918591742625,282.19377427036613L564.1709131074691,275.17800758639146L564.1709131074691,329.7388491397446L564.1709131074691,384.3014933325426L574.6918591742625,377.2802480384888C593.8086737636232,364.5233574878117,614.703703801216,355.60668983570235,637.5835812517054,350.4391234254882C649.8727398851021,347.6634828299933,660.4958001745982,346.4183184695347,660.4958001745982,347.75407429859365C660.4958001745982,350.1513019940352,656.7191998446923,369.8637298636868,654.899205576373,376.96605858691305C649.7270442028663,397.1501064197073,639.0667647107019,419.71339089936066,626.0707946853416,437.98741852917874L622.9127117604463,442.4295816190315L670.4395128142695,442.4295816190315L670.4395128142695,216.8106277499906C658.6577795118236,216.76467811706817,647.0705191942542,216.72827186944465,639.0027179915822,216.7285899822885ZZ" style="fill: rgb(255, 0, 0); stroke-width: 0.264583;"/></g><g id="shape-561912b6-a6e8-11ec-b67d-8f0c9f96ec17"><path d="M713.120748347052,214.10473281486628L713.120748347052,216.4725880911085C713.120748347052,218.13182933594237,713.4197744197633,218.83917091597806,714.1215313521051,218.83917091597806C714.6720079545174,218.83917091597806,715.122385048901,219.00282230092574,715.122385048901,219.20263251239578C715.122385048901,219.40269014496647,713.6594547742612,221.73488143688684,711.8709536774294,224.38536230147457C708.4899443411153,229.3957809670942,701.777869384888,240.81772864375648,701.777869384888,241.5611583585719C701.777869384888,241.79550148647695,702.4534350264634,242.31367196235743,703.2791145842106,242.7119492421818L703.2804577273267,242.7119492421818C704.1061372850739,243.1101204843912,705.0819661048641,243.4472847524284,705.4489269425577,243.45990322854698C705.8159231261221,243.4705069899901,707.4364252958156,241.16680447048162,709.0508833214852,238.33450444300667C710.6653413471557,235.50223976140268,714.3954972019382,229.47318842563283,717.3404091759454,224.93654582131683C723.6485515129124,215.21883468388154,723.6418357973306,214.61498581553565,717.2220005064906,214.30397749239268ZM670.4182345996388,214.16835538352774L670.4182345996388,218.5053291598595L670.4182345996388,218.83864072790578L675.0888380568607,218.83864072790578L691.7695091462814,218.83864072790578L708.450109543959,218.83864072790578L708.450109543959,216.5033389992953L708.450109543959,214.16807261655572L689.4341720717995,214.16807261655572ZM699.4621492690763,246.47536556202573C699.2974375079847,246.49303849776476,699.1747873339535,246.53156549767652,699.1078069075007,246.5994295709162C697.1717721431156,248.5402713738224,686.4317877107673,277.0487314362256,686.4317877107673,280.24746211332297C686.4317877107673,280.9147921668441,686.9572394361722,281.5977097496882,687.5995092668148,281.76563798508414C690.5061063161392,282.5252207631661,690.75660250731,282.2636613142218,692.4030132007975,276.71842426725584C694.617361357207,269.2602686558511,699.1231470157226,257.44219979752535,701.6802794337344,252.38689187512745C702.8351350925647,250.10372530694792,703.7797181619661,248.11343462984308,703.7797181619661,247.96385090174465C703.7797181619661,247.35579587469311,700.6135763783731,246.3556490953262,699.4621492690763,246.47536556202573ZZM780.8350611290747,270.88257346498966C780.645960716662,270.88257346498966,778.8502844079206,271.9721806450698,776.8447243143368,273.30383635303673L773.1971364153286,275.72516993282693L774.3295827916401,277.6408454752407C774.9520589342557,278.69454124989784,775.6967964463162,279.55652101765367,775.9846178777688,279.55652101765367C776.272333271606,279.55652101765367,776.5071712417126,285.86172964728803,776.5071712417126,293.56826069757443L776.5071712417126,307.58000037749525L778.8425083161943,307.58000037749525L781.1777746989336,307.58000037749525L781.1777746989336,289.23128692124266C781.1777746989336,279.1395104259458,781.024373616715,270.88257346498966,780.8350611290747,270.88257346498966ZZM769.5013367476232,278.3627495543253L762.4954315617914,282.69060409581556C756.5388746084251,286.369614474568,740.601421158592,294.7499792187283,737.7624761072781,295.6962942358325C737.0284130484048,295.9412411251815,737.0273173263885,296.3540455581833,737.75894152013,298.1163553642496C738.2429678841621,299.28474849185585,738.9219974211434,300.24053620251675,739.2680335029223,300.24053620251675C741.1367343821397,300.24053620251675,769.4685357788914,284.7944257121113,771.7549188213756,282.52900277141435C771.8924142614281,282.3929211662206,771.441754400072,281.4003030574789,770.754065124578,280.3227134737016ZM685.7722690948423,286.0762083954218C684.9433023710479,286.1384171292249,684.6740375221217,286.5965349694624,684.3387819311448,287.89683888942807C683.6233461465407,290.67134841703535,680.6533032579108,307.1377881794223,680.0799932225237,311.51035524833367L679.6095396731395,315.10711578415476L684.5225097710917,314.65101265859096C692.4019174787812,313.9187875850341,693.9006177753585,313.55002410789484,693.4779518442141,312.4486467526127C693.2725923309205,311.91312145383563,693.1039571780947,310.86896906447794,693.1039571780947,310.1289678991956C693.1039571780947,308.88097586901847,692.8201298301195,308.8168938040275,689.183993993472,309.238888163614L685.2653386060921,309.6936834919329L686.1893150324225,303.9167189115507C686.6980835064895,300.7395492160558,687.6661715804242,295.59962327733757,688.3395457779694,292.49441777617403C689.0128492837711,289.3891415832674,689.3846525058569,286.73873141042196,689.1657555237881,286.6053360914606C688.9466111206194,286.4717286972703,687.8869772395532,286.258239633538,686.8108721823788,286.1296866989694C686.3872519127041,286.0787886440397,686.0486031180645,286.0554603688636,685.7722690948423,286.0762083954218ZZM732.3569259443965,298.2388288089237C732.045175357952,298.2388288089237,728.2646162904413,299.45610527678576,723.9566261287217,300.9442018119187C716.5772564648445,303.4932046794904,702.7907406779867,307.24449736541715,699.108973321259,307.7050894166589C697.6824139483709,307.88358606762745,697.475499216734,308.20420846781246,697.6754861575613,309.91526676023443C697.8041451297439,311.0162199650588,698.0473247255189,312.14339980652085,698.2163133370599,312.4199812508432C698.5563406206865,312.9765019972783,698.472217446567,312.9919127972429,708.6782317984829,310.54859408539323C716.0121113257688,308.79285861142193,733.028674231853,303.2482577901423,734.0041142470553,302.29688831341593C734.6157392071262,301.700391386338,733.210670124097,298.2388288089237,732.3569259443965,298.2388288089237ZZM776.5071712417126,311.58330912706606L776.5071712417126,330.59928194509746L776.5071712417126,349.6152194172571L778.8425083161943,349.6152194172571L781.1777746989336,349.6152194172571L781.1777746989336,330.59928194509746L781.1777746989336,311.58330912706606L778.8425083161943,311.58330912706606ZM684.7935772594636,344.3764310760125C681.5220340871198,344.337550617386,680.4266301841175,345.4537025469464,680.4266301841175,348.3016254496156C680.4266301841175,350.8714470354888,684.8459951868666,374.6910651709878,685.5272868596224,375.7933968648001C685.7990966112947,376.2328167390258,688.6524274323004,375.8750458279162,689.7964672544578,375.2578008742804C689.9958179695981,375.1503494249848,689.2147095557867,370.3130901837404,688.0606668520003,364.507919597918C686.9066241482141,358.7027136662241,685.779055502166,352.9936838508247,685.5546092182752,351.82150871497026C685.1518783586442,349.7192423170196,685.1843258686628,349.6874310326891,687.9577043283829,349.4862069863593C690.5765859838681,349.29604619780275,690.7833946778914,349.1369897761481,690.9745451508494,347.1665281329423C691.1784908292824,345.0633073964624,691.1572833063955,345.04807332585494,687.419492743374,344.58104832600395C686.4193813098783,344.4562773996836,685.5485650742522,344.38523219801107,684.7935772594636,344.3764310760125ZZM696.3019455918912,345.8647043405033C696.0820942712925,345.86346723500117,695.9428668835368,345.8859118633908,695.8927464377801,345.9375168357494C695.7573717500167,346.0728915235137,695.6004360806502,347.1448611137257,695.5435292275682,348.32103033305725L695.4392589067055,350.45956159514526L703.7795414326091,352.3165276450318C711.9839897744185,354.142177252788,727.1035044123599,358.5000050932929,729.0924166004776,359.6130112402918C730.4246024965165,360.35852636152447,730.8655775890867,360.025851019165,731.6922468312358,357.65435511815997C732.3693676911563,355.7118520592942,732.3287199389562,355.66268595206714,728.9230038384779,354.3899164659837C720.9184363998819,351.39841863336744,699.595721317395,345.8824479679855,696.3019455918912,345.8647043405033ZZM776.5071712417126,353.6185635127001L776.5071712417126,366.29585516080624C776.5071712417126,373.2683938439626,776.2678796918007,378.9731468089128,775.9741908456821,378.9731468089128C775.6804666536933,378.9731468089128,775.1170888081907,378.65043900231046,774.7218512733135,378.25513077569053C774.2084878359541,377.7417319924597,773.5781649098705,378.133540977803,772.5142895242285,379.6273635441157C771.695148952704,380.77769493139635,771.132654753989,381.8089107317935,771.264530200477,381.9183415498919C771.396016842379,382.02756029276156,773.6021647566052,383.51095582698827,776.1670732663423,385.21536909557165C778.7319817760805,386.91974701828406,780.9088986545943,388.3143183774839,781.0044385452017,388.3143183774839C781.1002258569096,388.3143183774839,781.1776333154481,380.5077938567839,781.1776333154481,370.9664586180281L781.1776333154481,353.6185635127001L778.8423669327091,353.6185635127001ZM736.6951368262299,357.98293033942787C736.5781419916342,357.9864649265759,736.4968464872333,358.0112070366108,736.4526641478843,358.0585705043934C736.1493965705955,358.369260714692,735.7041092817041,359.4205883159607,735.4635099345479,360.3951800302483C735.1011440601461,361.8639070278108,735.2931428340199,362.2476571544572,736.5842568274,362.639254064572C739.5666000793034,363.5436135322309,755.0276265274737,371.539521232315,760.9106287222927,375.22008682941214C764.1681395836591,377.25805908714244,767.0240859991535,378.93716471174764,767.2571213298141,378.94978318786536C767.6557167224822,378.97099071075274,769.8347896991553,375.98988456435154,769.8347896991553,375.4221238307862C769.8347896991553,374.95304877038916,762.9881883560796,370.6268908307302,756.1566443542525,366.77942202850943C748.097220123121,362.2404112508041,738.4513317965296,357.90976438546704,736.6951368262299,357.98293033942787ZZM691.218219588825,379.7706910529629C690.8454973740801,379.77422564011044,690.0443478511389,379.8855651352692,689.1514050999673,380.06406178623774C687.0770972863573,380.47891627978515,687.0052744755116,380.5981379042837,687.4338078213221,382.90498620635367C688.0476595712956,386.20901223458657,693.5834946164495,400.5394302917613,697.4487070461527,408.83164243245267C699.2020390008628,412.5931500752373,700.8788824896934,415.6707504507759,701.1758231559876,415.6707504507759C702.49277498142,415.6707504507759,705.1372470478567,414.0313382398415,704.8650838374684,413.3836604908623C704.6996651589471,412.9903316330449,702.8953644575646,409.0189048595481,700.855236101674,404.55853864588346C698.8151077457832,400.0982077780902,695.8885756249452,392.7420250059024,694.3510655614847,388.21149723735175C692.8135554980241,383.68096946880166,691.5016934780857,379.8977594609295,691.4358794653921,379.80342132995213C691.4182065296521,379.7822138070652,691.3425663646866,379.7716100456213,691.218219588825,379.7706910529629ZZM707.3333213887112,417.8599323466924L705.2156441907963,418.9545939863938L703.0979669928814,420.0505987692118L706.6387396682798,426.03345305095854C708.586544607867,429.3245778361012,711.2978910631422,433.669009591315,712.6633020783717,435.68736489037474L715.1458547075625,439.3571146507991L712.4652238146037,439.56282762280637C709.8952961911162,439.7597041269438,709.784592921645,439.8622071542326,709.784592921645,442.06492651892563L709.784592921645,444.36113571368116L717.1644927735937,444.36113571368116C722.8955784127967,444.36113571368116,724.4282814377367,444.1748629709873,724.0309231505702,443.5270791843932C723.7495700135986,443.0683604643407,721.7274680521629,440.14094469671545,719.5362360957,437.02163619283135C717.3450748309798,433.9023630348187,713.7022232787505,428.3150644007926,711.44220825639,424.6049850010104ZM673.1184471053976,439.5747391814947C671.9192323778617,439.5535316586073,670.3355959521219,439.7048119885375,670.4182345996388,440.69159802848503L670.4182345996388,444.360004645794L688.0997593858561,444.360004645794L705.7812134803299,444.360004645794L705.7812134803299,442.0247382630548L705.7812134803299,439.68943653444387L690.5132461821778,439.68943653444387C675.806005789167,439.68943653444387,675.8274607331547,439.64207306666253,674.4189984464637,439.66822901155683C674.4189984464637,439.66822901155683,673.8379123193512,439.5901146355884,673.1184471053976,439.5747391814947ZZ" style="fill: rgb(236, 236, 236); fill-opacity: 1; stroke-width: 0.188771;"/></g></g></svg>