<svg id="screenshot" viewBox="-143.89653759241588 84.26566532248066 487.58537718672187 502.2598685834521" width="487.58537718672187" height="502.2598685834521" version="1.1" xmlns="http://www.w3.org/2000/svg" xmlns:xlink="http://www.w3.org/1999/xlink" style="-webkit-print-color-adjust: exact;"><g id="shape-db272f70-a6e6-11ec-b67d-8f0c9f96ec17"><g id="shape-db2819d0-a6e6-11ec-b67d-8f0c9f96ec17"><path d="M102.11546479372865,90.3011992284134C-31.158686164634346,93.03800908460886,-137.791296724806,201.96157062337832,-137.86100368648314,335.43344812530125C-137.7501869477122,468.8758841833623,-31.129316751448364,577.7538211479571,102.1154647937365,580.49Z" style="stroke: none; stroke-miterlimit: 4; stroke-dasharray: 40, 5; stroke-dashoffset: 0; stroke-opacity: 1; fill: rgb(153, 153, 153); fill-opacity: 1; stroke-width: 5;"/></g><g id="shape-db2867f0-a6e6-11ec-b67d-8f0c9f96ec17"><path d="M102.11546479372865,125.5254999214383C-11.728991034356294,128.25549694495146,-102.61664638151608,221.4113789738935,-102.68149311661227,335.43344812530125C-102.57564172399609,449.4260959763346,-11.699647041216878,542.536436760822,102.11546479374793,545.2656993069752Z" style="stroke: none; stroke-miterlimit: 4; stroke-dasharray: 34.2564, 4.28205; stroke-dashoffset: 0; stroke-opacity: 1; fill: rgb(236, 236, 236); fill-opacity: 1; stroke-width: 4.28205;"/></g><g id="shape-db288f00-a6e6-11ec-b67d-8f0c9f96ec17"><path d="M102.11546313170344,90.30121002382924C235.38961504609202,93.03801779081672,342.0222282408648,201.96157804718186,342.09193795928854,335.4334564618634C341.9810887967831,468.8758721800735,235.36022443786794,577.7537749349924,102.11546313171934,580.4899512374848Z" style="stroke: none; stroke-miterlimit: 4; stroke-dasharray: 10.5833, 1.32292; stroke-dashoffset: 0; stroke-opacity: 1; fill: rgb(19, 128, 182); fill-opacity: 1; stroke-width: 1.32292;"/></g><g id="shape-db28dd20-a6e6-11ec-b67d-8f0c9f96ec17"><path d="M102.11546313170344,125.52546678355374C215.95995405691554,128.2554389451139,306.847644749981,221.4113527624455,306.9124712668544,335.4334564618634C306.80661048479254,449.4261176227279,215.93058887927404,542.5364573152042,102.11546313170344,545.2656944777614Z" style="stroke: none; stroke-miterlimit: 4; stroke-dasharray: 9.06368, 1.13296; stroke-dashoffset: 0; stroke-opacity: 1; fill: rgb(28, 153, 216); fill-opacity: 1; stroke-width: 1.13296;"/></g><g id="shape-db297960-a6e6-11ec-b67d-8f0c9f96ec17"><path d="M59.18049961939171,193.70759490311153C45.718120932523625,193.70791011395286,37.3627479455555,193.75487652934473,37.3629053505703,193.8494397818117C37.36306275558512,194.03856628674737,41.11764456972412,199.77761007899747,45.70631555642545,206.60129437704998C68.45181238653221,240.4242057033507,81.67619469126956,275.881642848551,87.93178478297804,319.817463604564L88.73612440777316,325.461156117243L80.9510297888373,324.6463360918149C45.20277691460191,320.90509861336045,3.7263981527064374,305.408703220675,-28.98346572398826,283.57042330126L-43.406802025215335,273.9402592753941L-43.406802025215335,348.83356720252266L-43.406802025215335,423.72939681638366L-28.98346572398826,414.0915101248996C-2.776003001950736,396.5807598492375,25.86919118176872,384.34128047695253,57.235445853520574,377.24793330394687C74.08281938016044,373.43797986203253,88.64608873940092,371.7287490736832,88.64608873940092,373.56233053902685C88.64608873940092,376.8528165140531,83.4687229979573,403.91130318051444,80.9736961109437,413.6603016936477C73.88307241658524,441.3660738232486,59.26880383260328,472.33774548223465,41.45244503585818,497.4215938317541L37.12302010826414,503.51918995627693L102.27799262703368,503.51918995627693L102.27799262703368,193.82185883317467C86.12634926509065,193.758816664864,70.24119259292823,193.71153503862965,59.18049961939171,193.70759490311153ZZ" style="fill: rgb(255, 0, 0); stroke-width: 0.0814502;"/></g><g id="shape-db2d9810-a6e6-11ec-b67d-8f0c9f96ec17"><path d="M160.78968650304364,187.5387611283958L160.78968650304364,190.78890011570272C160.78968650304364,193.06645605138172,161.19893954109972,194.03746304880178,162.1622582306797,194.03746304880178C162.91622825079028,194.03746304880178,163.53482995831456,194.26283880051537,163.53482995831456,194.53707223267108C163.53482995831456,194.81130566482682,161.52933266682243,198.01290218253408,159.07743475382128,201.65106571579875C154.4424866928171,208.52865106775752,145.24074694214627,224.20708072144308,145.24074694214627,225.22757582098743C145.24074694214627,225.5490908793769,146.1662884282107,226.2598913270906,147.2988175085258,226.8072549534571L147.3007063687023,226.8072549534571C148.4324484239422,227.35414576356015,149.77039104835876,227.81592964644315,150.27345747513792,227.83326624272902C150.77715352197623,227.84776594144068,152.9981382785063,224.68557077892822,155.21141018931874,220.79791786456988C157.42468210013106,216.91010734479127,162.5384562156621,208.63424669967978,166.57558003107408,202.40709891927614C175.22356894025268,189.0680065262161,175.21428204438925,188.23915961833865,166.4134528659997,187.81220653344792ZM102.24840048428123,187.63332438086331L102.24840048428123,193.5863963345316L102.24840048428123,194.04345205479115L108.65132166969015,194.04345205479115L131.5191221961698,194.04345205479115L154.38676531763474,194.04345205479115L154.38676531763474,190.83791540156466L154.38676531763474,187.63237874833877L128.31750419845122,187.63237874833877ZM142.06494336682687,231.97970725800627C141.83985419589573,232.0112283421619,141.67143083023473,232.05850996839567,141.5785618715982,232.14992111244703C138.92439851478719,234.81392553987652,124.20089085064565,273.9462482813834,124.20089085064565,278.3369776988691C124.20089085064565,279.2526651935954,124.92180581768594,280.1904174472316,125.80169984950554,280.4209941778315C129.78640779504502,281.46276600918105,130.12986553698215,281.10500170401247,132.38689604186385,273.4928174858024C135.42260915415514,263.2553997736743,141.59965414356,247.03323141830128,145.1052212245419,240.09402234681804C146.68840086176354,236.9600385546257,147.98337191718255,234.22810619084103,147.98337191718255,234.02274632756556C147.98337191718255,233.18743759743649,143.64292863856443,231.8151671987118,142.06494336682687,231.97970725800627ZZM253.62008091035446,265.48236436928346C253.36036263620394,265.48236436928346,250.8990204223222,266.9780398124769,248.14962703165702,268.80594748267316L243.14918452666504,272.1296882014843L244.70119797098621,274.75917704176294C245.55433315031885,276.2059948045148,246.57541948026923,277.38882348746256,246.97003385196498,277.38882348746256C247.3651204387041,277.38882348746256,247.68622666856447,286.0437251695472,247.68622666856447,296.62204340682024L247.68622666856447,315.855420931599L250.88784466628428,315.855420931599L254.08930525898813,315.855420931599L254.08930525898813,290.6689714531514C254.08930525898813,276.81640059919255,253.87838253937406,265.48236436928346,253.62008091035446,265.48236436928346ZZM238.08247451050977,275.75019992762174L228.47809273239702,281.6908210530479C220.31207797803904,286.740813945653,198.46331751631834,298.2441183974782,194.57132112440172,299.5431022755394C193.56550308087205,299.8788018217992,193.56392903072393,300.44618133660435,194.56644156894717,302.8651093347218C195.23069073071744,304.4689020965698,196.16095436722264,305.7808096191349,196.6353730813382,305.7808096191349C199.197139694556,305.7808096191349,238.03761408133906,284.57862517798435,241.1720201378079,281.4689126205919C241.36090615537265,281.28136216986456,240.74230444784826,279.9196513343334,239.79944841017192,278.4405244603206ZM123.29738606662958,286.33813209556206C122.16092186094879,286.4169348059514,121.79102007655202,287.05208465169136,121.33218445888443,288.83712364743536C120.35155121769579,292.6456586405623,116.27979829906323,315.2483248507572,115.49371765596442,321.25041209028745L114.84835709595319,326.18755950161443L121.58356026726022,325.5618659811208C132.38563680174659,324.556343396551,134.44008705278986,324.05042999584924,133.86067919391115,322.53883640515744C133.57892421770998,321.8043951443259,133.34753884619442,320.3705010260778,133.34753884619442,319.3547340891571C133.34753884619442,317.6417207707089,132.95874846004088,317.5537769459139,127.97357424146838,318.13329207811876L122.60149849691788,318.75740954440454L123.86860886474739,310.8276504033237C124.56591307959015,306.46639319952413,125.8933095680236,299.4110289329269,126.81648997887149,295.14874793337697C127.73888336464526,290.8861517229846,128.24887561206808,287.2481457951404,127.94980608425827,287.0650082961952C127.64916250630155,286.88218600809137,126.19678643624458,286.5890399254425,124.72158663906636,286.41252185416937C124.14076213505427,286.3494796858586,123.67641734187626,286.3179586017018,123.29738606662958,286.33813209556206ZZM187.16085044030137,303.0331167132721C186.73270880048867,303.0331167132721,181.5506209086041,304.7040493843728,175.64478475942175,306.7467732430902C165.5283644686937,310.24561358438643,146.62827214617107,315.39489789208136,141.58076554180326,316.0270532348266C139.62516563995237,316.2713416370339,139.34152180357577,316.71263681521583,139.61572133907404,319.0609575848237C139.79201495546758,320.5723935700964,140.1257135864969,322.1194483804638,140.3570989580146,322.49896223369984C140.8230178013407,323.2633485244785,140.70811214065475,323.2838372291801,154.69937167670454,319.93030908584205C164.75345958163618,317.52020699128764,188.08166977592825,309.9094412218644,189.4189827802855,308.60352270528875C190.25795150830237,307.7855505714456,188.33131412914352,303.0331167132721,187.16085044030137,303.0331167132721ZZM247.68685628862252,321.3504915324826L247.68685628862252,347.45294371649777L247.68685628862252,373.555238295092L250.88847428634122,373.555238295092L254.0899348790463,373.555238295092L254.0899348790463,347.45294371649777L254.0899348790463,321.350491532482L250.88847428634122,321.350491532482ZM121.95566572186216,366.3643333666247C117.47072463980672,366.3170517403915,115.96892339515409,367.8426722135321,115.96892339515409,371.7522322813789C115.96892339515409,375.27975680925715,122.02759981355165,407.97578937698665,122.96148376539415,409.4889590218874C123.33453365008374,410.0925877834712,127.24589085880147,409.59928281643306,128.81427442464584,408.7545177610571C129.0881591501145,408.61267288235535,128.01623100043525,401.9672403152042,126.43462541336052,393.998710240613C124.8525476112436,386.03018016602067,123.30667296249196,378.19356582862093,122.99894615887672,376.58457208788786C122.44645455750091,373.69881683342203,122.49052796159981,373.6551601318662,126.29343311523196,373.379035434662C129.88368409409054,373.11741043616877,130.16717052545118,372.89991495549305,130.42924987482158,370.19493311866165C130.70943080087696,367.30791702082996,130.67952384809502,367.2869554998661,125.55551840661381,366.64597425355714C124.18452072912355,366.47418434490805,122.99076109811688,366.3764689840243,121.95566572186216,366.3643333666247ZZM137.7326851489685,368.4072148307631C137.43204157101178,368.40548117113434,137.24000745315553,368.4387359149193,137.17232329686126,368.5017780832301C136.98658537958931,368.68775247974946,136.7709405095366,370.15899908272206,136.6938120523651,371.7735090131835L136.55214753919216,374.7089099751938L147.9858903974172,377.2578624454543C159.23358052834078,379.76394624126306,179.96098766578658,385.7457023815128,182.68771473434415,387.2735293305456C184.5139277141647,388.29638851140254,185.1185203753858,387.8409088453507,186.2518364807726,384.5849384574749C187.1805260671321,381.91856994873393,187.12386026186198,381.85111482864056,182.45538493273972,380.1039011338834C171.48189433731443,375.99764950090463,142.2503664740703,368.42612748125515,137.7326851489685,368.4072148307631ZZM247.68685628862252,379.0504665013977L247.68685628862252,396.45215382588134C247.68685628862252,406.0230582135348,247.35945385817772,413.8536835449445,246.9564970207062,413.8536835449445C246.55354018323573,413.8536835449445,245.7822556115143,413.41081231255527,245.23968052605997,412.8686496650751C244.5360801106317,412.1641534341926,243.67192658027378,412.7015879190488,242.21325430963117,414.7523496542274C241.09095655526852,416.3313983650133,240.31919976850378,417.7468526490305,240.50005813032118,417.8970506150325C240.67949984700738,418.05465603581126,243.7046668233178,420.0831954066601,247.22093744529653,422.42269027270436C250.73720806727522,424.7621851387497,253.7216071447953,426.6764605795326,253.85256811697255,426.6764605795326C253.97849212868263,426.6764605795326,254.0902496890747,415.9608680207618,254.0902496890747,402.8638575540175L254.0902496890747,379.05109692308093L250.88878909637086,379.05109692308093ZM193.1080841083354,385.0413637560523C192.9475309934069,385.0460919186758,192.83577343301363,385.07288484020853,192.775959527452,385.15168755059796C192.3604102888092,385.5787982409097,191.74967883201856,387.02136065730036,191.41912830127987,388.3591154688736C190.92172845502589,390.37520401148026,191.18616887961622,390.9019213277238,192.95540124413833,391.43951341800084C197.04383909432246,392.6814441337407,218.2395261503119,403.65645521511476,226.30464429028825,408.7086545836092C230.77038196055852,411.50599319701763,234.68567429464088,413.81097247591214,235.00504906934057,413.82815146677706C235.55124447013097,413.8596725509339,238.5387916479427,409.7652413245128,238.5387916479427,408.9858825187606C238.5387916479427,408.3428524019822,229.15273062513216,402.4038073307628,219.78728965923787,397.12244968045485C208.73855946681542,390.89199218621457,195.51496418715098,384.9474309252686,193.1080841083354,385.0413637560523ZZM130.76326331588268,414.94841079767525C130.2516970183119,414.95329656571954,129.15395444623215,415.106016218454,127.92981564739911,415.3518806748698C125.08613665296528,415.9208362438816,124.98775851881724,416.0847458814923,125.57519403344335,419.25151160120726C126.41731086175187,423.78676518954643,134.00596402242127,443.4574977569879,139.30468903015014,454.8399188510752C141.70842100867412,460.0032300412193,144.0071638424348,464.2276857397822,144.41437061530064,464.2276857397822C146.21964872817315,464.2276857397822,149.84500102529557,461.97723793647737,149.47195114060602,461.08834336328346C149.24528791952906,460.54775677001163,146.77166811450687,455.09697329236576,143.9747384094193,448.9744755113594C141.17796610934656,442.85197773035384,137.16602709627685,432.754356026457,135.05821654527097,426.53556133335474C132.9504059942651,420.31660903483146,131.15189629702138,415.12366802558074,131.06170322363437,414.9941163697C131.03022222070769,414.9625952855444,130.93577921192428,414.9468347434668,130.76326331588268,414.94841079767525ZZM152.85568674026047,467.2318026652536L149.95250865029342,468.73378232527887L147.04933056032527,470.2389140937193L151.90354380671945,478.4512597542565C154.57376247502395,482.9688615354686,158.29072449066337,488.93233544690924,160.16258492472872,491.70288113878456L163.56599615121283,496.7401079923055L159.89106127447997,497.0222216955002C156.3678648318575,497.29172696503315,156.21612639774702,497.4335718437333,156.21612639774702,500.45675902511874L156.21612639774702,503.60855222985873L166.33333371354686,503.60855222985873C174.19020501915975,503.60855222985873,176.29140455954928,503.3532314481963,175.7466258038899,502.4643368750021C175.3609835180303,501.8354912460941,172.58876640024062,497.8163954108049,169.58484910090561,493.5345713390784C166.58093180157195,489.2529048727731,161.58694290218023,481.5835098868195,158.48858259406302,476.4908059251845ZM105.95009421350227,497.03877026468194C104.30615624063222,497.00724918052526,102.13506887374228,497.21686439016247,102.24840048428123,498.57227100886297L102.24840048428123,503.60760659733427L126.48814311833773,503.60760659733427L150.72788575239545,503.60760659733427L150.72788575239545,500.40222754952873L150.72788575239545,497.1965332908818L129.7967965260099,497.1965332908818C109.63447339111345,497.1965332908818,109.66390812884993,497.13349112256924,107.73302081429682,497.16501220672626C107.73302081429682,497.16501220672626,106.93655144023192,497.0546884121799,105.95009421350227,497.03877026468194ZZ" style="fill: rgb(236, 236, 236); fill-opacity: 1; stroke-width: 0.0581117;"/></g></g></svg>